# AST/ASF file generated using VICON BodyLanguage
# -----------------------------------------------
:version 1.10
:name VICON
:units
  mass 1.0
  length 0.45
  angle deg
:documentation
   .ast/.asf automatically generated from VICON data using
   VICON BodyBuilder and BodyLanguage model FoxedUp or BRILLIANT.MOD
:root
   order TX TY TZ RX RY RZ
   axis XYZ
   position 0 0 0  
   orientation 0 0 0 
:bonedata
  begin
     id 1 
     name lhipjoint
     direction 0.54267 -0.795011 0.271047 
     length 2.39899 
     axis 0 0 0  XYZ
  end
  begin
     id 2 
     name lfemur
     direction 0.34202 -0.939693 0  
     length 7.49701  
     axis 0 0 20  XYZ
    dof rx ry rz
    limits (-160.0 20.0)
           (-70.0 70.0)
           (-60.0 70.0)
  end
  begin
     id 3 
     name ltibia
     direction 0.34202 -0.939693 0   
     length 8.1668   
     axis 0 0 20   XYZ
    dof rx
    limits (-10.0 170.0)
  end
  begin
     id 4 
     name lfoot
     direction 0.0736283 -0.202292 0.976554   
     length 2.13544   
     axis -90 7.62852e-016 20   XYZ
    dof rx rz
    limits (-45.0 90.0)
           (-70.0 20.0)
  end
  begin
     id 5 
     name ltoes
     direction 1.53557e-011 -4.22024e-011 1   
     length 1.07411   
     axis -90 7.62852e-016 20   XYZ
    dof rx
    limits (-90.0 20.0)
  end
  begin
     id 6 
     name rhipjoint
     direction -0.538061 -0.797813 0.272002   
     length 2.39057  
     axis 0 0 0  XYZ 
  end
  begin
     id 7 
     name rfemur
     direction -0.34202 -0.939693 0   
     length 7.50152   
     axis 0 0 -20   XYZ
    dof rx ry rz
    limits (-160.0 20.0)
           (-70.0 70.0)
           (-70.0 60.0)
  end
  begin
     id 8 
     name rtibia
     direction -0.34202 -0.939693 0   
     length 8.05793   
     axis 0 0 -20   XYZ
    dof rx
    limits (-10.0 170.0)
 end
 begin
     id 9 
     name rfoot
     direction -0.0765195 -0.210236 0.974652   
     length 2.28698  
     axis -90 -7.62852e-016 -20   XYZ
    dof rx rz
    limits (-45.0 90.0)
           (-20.0 70.0)
  end
  begin
     id 10 
     name rtoes
     direction -1.53542e-011 -4.21847e-011 1   
     length 1.14762   
     axis -90 -7.62852e-016 -20   XYZ
    dof rx
    limits (-90.0 20.0)
  end
  begin
     id 11 
     name lowerback
     direction -0.0217239 0.996592 -0.0795765   
     length 2.08176   
     axis 0 0 0   XYZ
    dof rx ry rz
    limits (-20.0 45.0)
           (-30.0 30.0)
           (-30.0 30.0)
  end
  begin
     id 12 
     name upperback
     direction -0.00563773 0.999651 -0.0258155   
     length 2.08898   
     axis 0 0 0   XYZ
    dof rx ry rz
    limits (-20.0 45.0)
           (-30.0 30.0)
           (-30.0 30.0)
  end
  begin
     id 13 
     name thorax
     direction 0.0032706 0.999923 0.0119599   
     length 2.0968   
     axis 0 0 0   XYZ
    dof rx ry rz
    limits (-20.0 45.0)
           (-30.0 30.0)
           (-30.0 30.0)
  end
  begin
     id 14 
     name lowerneck
     direction -0.0285886 0.99568 0.0883427   
     length 1.81272   
     axis 0 0 0   XYZ
    dof rx ry rz
    limits (-20.0 45.0)
           (-30.0 30.0)
           (-30.0 30.0)
  end
  begin
     id 15 
     name upperneck
     direction 0.0807535 0.97985 -0.18268   
     length 1.82518   
     axis 0 0 0   XYZ
    dof rx ry rz
    limits (-20.0 45.0)
           (-30.0 30.0)
           (-30.0 30.0)
  end
  begin
     id 16
     name head
     direction 0.0236605 0.997053 -0.0729767  
     length 1.84443  
     axis 0 0 0   XYZ
    dof rx ry rz
    limits (-20.0 45.0)
           (-30.0 30.0)
           (-30.0 30.0)
  end
  begin
     id 17 
     name lclavicle
     direction 0.918986 0.39378 -0.0200683  
     length 3.27822  
     axis 0 0 0   XYZ
    dof ry rz
    limits (-20.0 10.0)
           (0.0 20.0)
  end
  begin
     id 18 
     name lhumerus
     direction 1 -4.4897e-011 2.09544e-027   
     length 5.5568   
     axis 180 -30 -90   XYZ
    dof rx ry rz
    limits (-60.0 90.0)
           (-90.0 90.0)
           (-90.0 90.0)
  end
  begin
     id 19
     name lradius
     direction 1 -4.48957e-011 -1.27696e-026   
     length 3.63979   
     axis 180 -30 -90   XYZ
    dof rx
    limits (-10.0 170.0)
  end
  begin
     id 20
     name lwrist
     direction 1 -4.49001e-011 -1.49001e-026   
     length 1.8199   
     axis 9.0955e-015 90 90   XYZ
    dof ry
    limits (-180.0 0.0)
 end
  begin
     id 21 
     name lhand
     direction 1 -4.48709e-011 -2.9758e-026   
     length 0.569419   
     axis 1.90115e-014 90 90   XYZ
    dof rx rz
    limits (-90.0 90.0)
           (-45.0 45.0)
  end
  begin
     id 22 
     name lfingers
     direction 1 -4.49175e-011 -5.96505e-026   
     length 0.45908   
     axis 3.80223e-014 90 90   XYZ
    dof rx
    limits (0.0 90.0)
  end
  begin
     id 23
     name lthumb
     direction 0.707107 -6.34864e-011 0.707107   
     length 0.65915   
     axis -90 45 -3.84942e-014   XYZ
    dof rx rz
    limits (-45.0 45.0)
           (-45.0 45.0)
  end
  begin
     id 24 
     name rclavicle
     direction -0.911913 0.396426 -0.106115   
     length 3.46301  
     axis 0 0 0   XYZ 
    dof ry rz
    limits (-10.0 20.0)
           (-20.0 0.0)
  end
  begin
     id 25 
     name rhumerus
     direction -1 -4.48965e-011 7.78516e-028  
     length 5.34339   
     axis 180 30 90   XYZ
    dof rx ry rz
    limits (-90.0 60.0)
           (-90.0 90.0)
           (-90.0 90.0)
  end
  begin
     id 26 
     name rradius
     direction -1 -4.48948e-011 -5.79823e-027   
     length 3.65101   
     axis 180 30 90   XYZ
    dof rx
    limits (-10.0 170.0)
  end
  begin
     id 27 
     name rwrist
     direction -1 -4.48995e-011 -1.48996e-026   
     length 1.8255   
     axis 9.0955e-015 -90 -90   XYZ
    dof ry
    limits (-180.0 0.0)
  end
  begin
     id 28
     name rhand
     direction -1 -4.48957e-011 -2.97937e-026   
     length 0.694249   
     axis 1.90115e-014 -90 -90   XYZ
    dof rx rz
    limits (-90.0 90.0)
           (-45.0 45.0)
  end
  begin
     id 29
     name rfingers
     direction -1 -4.4898e-011 -5.95943e-026   
     length 0.559721   
     axis 3.80223e-014 -90 -90   XYZ
    dof rx
    limits (0.0 90.0)
  end
  begin
     id 30
     name rthumb
     direction -0.707107 -6.34969e-011 0.707107   
     length 0.803651   
     axis -90 -45 3.84942e-014   XYZ
    dof rx rz
    limits (-45.0 45.0)
           (-45.0 45.0)
  end
:hierarchy
  begin
    root lhipjoint rhipjoint lowerback
    lhipjoint lfemur
    lfemur ltibia
    ltibia lfoot
    lfoot ltoes
    rhipjoint rfemur
    rfemur rtibia
    rtibia rfoot
    rfoot rtoes
    lowerback upperback
    upperback thorax
    thorax lowerneck lclavicle rclavicle
    lowerneck upperneck
    upperneck head
    lclavicle lhumerus
    lhumerus lradius
    lradius lwrist
    lwrist lhand lthumb
    lhand lfingers
    rclavicle rhumerus
    rhumerus rradius
    rradius rwrist
    rwrist rhand rthumb
    rhand rfingers
  end

#!OML:ASF H:\Terrain\Walking\May29\JustinRory\rory.ASF
:FULLY-SPECIFIED
:DEGREES
587
root 10.4062 18.4527 -12.617 0.426846 -4.85004 1.92704
lowerback -4.3307 -0.0824772 -4.23544
upperback -0.937812 0.0652845 0.886473
thorax 1.45719 0.0159374 3.29507
lowerneck -10.6977 -5.69811 -5.0528
upperneck 19.7673 -8.16095 5.62392
head 8.33758 -3.719 1.84687
rclavicle -1.54804e-014 8.34896e-015
rhumerus -8.53149 26.4753 -83.2367
rradius 103.965
rwrist -4.3564
rhand -21.6274 44.6776
rfingers 7.12502
rthumb 4.76852 14.7513
lclavicle -1.54804e-014 8.34896e-015
lhumerus -3.19254 4.64469 53.2339
lradius 106.075
lwrist 32.6449
lhand -8.14805 17.8587
lfingers 7.12502
lthumb 17.7664 47.0671
rfemur -3.92665 12.7922 12.1558
rtibia 10.8128
rfoot -5.21169 -12.4557
rtoes 1.92685
lfemur 8.36092 -1.32314 -17.9512
ltibia 0.774254
lfoot -8.52937 6.08094
ltoes -8.79114
588
root 10.4076 18.4503 -12.6201 0.431405 -4.72028 2.07295
lowerback -4.32782 0.210617 -4.10105
upperback -1.06608 0.448948 0.793233
thorax 1.29138 0.214065 3.14296
lowerneck -10.3496 -5.98707 -5.22094
upperneck 19.7231 -8.51927 5.51676
head 8.28359 -3.91843 1.80777
rclavicle -1.10325e-014 1.59028e-015
rhumerus -7.84113 25.8146 -84.0991
rradius 103.683
rwrist -5.7663
rhand -23.4799 43.9127
rfingers 7.12502
rthumb 2.97967 13.9538
lclavicle -1.10325e-014 1.59028e-015
lhumerus -1.82477 3.55791 53.4556
lradius 106.275
lwrist 32.51
lhand -7.51919 18.3424
lfingers 7.12502
lthumb 18.3714 47.4948
rfemur -3.93039 12.8512 12.0133
rtibia 10.8847
rfoot -5.12645 -12.7023
rtoes 0.535867
lfemur 8.40079 -1.40207 -18.1038
ltibia 0.568889
lfoot -8.33677 6.08741
ltoes -9.13105
589
root 10.409 18.4484 -12.6274 0.418217 -4.54404 2.17921
lowerback -4.3045 0.353023 -4.01083
upperback -1.12792 0.632627 0.797314
thorax 1.20011 0.309098 3.10518
lowerneck -10.3328 -6.20526 -5.43618
upperneck 19.8517 -8.74569 5.30809
head 8.33785 -4.05938 1.7472
rclavicle -8.49804e-015 -1.55052e-014
rhumerus -6.60266 25.6301 -84.8763
rradius 103.185
rwrist -7.14945
rhand -25.1421 43.2326
rfingers 7.12502
rthumb 1.37435 13.2573
lclavicle -8.49804e-015 -1.55052e-014
lhumerus -0.592843 2.57969 53.634
lradius 106.562
lwrist 32.3483
lhand -6.90225 18.4015
lfingers 7.12502
lthumb 18.9648 47.497
rfemur -3.93836 12.7771 11.8994
rtibia 10.9573
rfoot -5.06177 -12.8485
rtoes 0.249834
lfemur 8.22232 -1.5241 -18.2242
ltibia 0.810641
lfoot -8.50239 5.94138
ltoes -8.60705
590
root 10.4111 18.4469 -12.6374 0.365444 -4.3346 2.31463
lowerback -4.3618 0.400252 -4.00885
upperback -1.10468 0.697677 0.837266
thorax 1.25016 0.340133 3.14952
lowerneck -10.2005 -6.33389 -5.67586
upperneck 19.8788 -8.87426 5.24739
head 8.33941 -4.14559 1.75487
rclavicle 0 5.96354e-015
rhumerus -5.17753 25.6693 -85.593
rradius 102.403
rwrist -7.61973
rhand -26.8868 43.8772
rfingers 7.12502
rthumb -0.310765 13.8976
lclavicle 0 5.96354e-015
lhumerus 0.444315 1.50608 53.698
lradius 106.816
lwrist 31.8252
lhand -6.5865 17.7689
lfingers 7.12502
lthumb 19.2685 46.8344
rfemur -3.83107 12.6035 11.7364
rtibia 10.86
rfoot -5.08586 -12.8268
rtoes 0.851729
lfemur 7.35429 -1.66382 -18.4607
ltibia 2.4499
lfoot -9.28784 5.68759
ltoes -8.29048
591
root 10.4144 18.4441 -12.6499 0.375807 -4.21005 2.21351
lowerback -4.4471 0.47419 -3.67275
upperback -1.07095 0.785576 0.799313
thorax 1.33059 0.382556 2.92699
lowerneck -10.0168 -6.40666 -5.45211
upperneck 19.7517 -8.99057 5.12349
head 8.25344 -4.20106 1.67138
rclavicle -1.5207e-014 1.07344e-014
rhumerus -3.71858 25.225 -86.5157
rradius 101.634
rwrist -10.0626
rhand -24.8515 44.9606
rfingers 7.12502
rthumb 1.65495 14.9872
lclavicle -1.5207e-014 1.07344e-014
lhumerus 1.54894 0.251253 53.5343
lradius 107.155
lwrist 31.3966
lhand -6.5086 17.2592
lfingers 7.12502
lthumb 19.3434 46.3172
rfemur -3.67414 12.694 11.8353
rtibia 10.5391
rfoot -4.93237 -13.003
rtoes 0.927293
lfemur 6.45162 -1.71931 -18.4389
ltibia 4.0834
lfoot -10.0211 5.48894
ltoes -8.81181
592
root 10.4148 18.4464 -12.6758 0.502028 -4.10135 1.71286
lowerback -3.7129 0.580955 -3.35076
upperback -1.67033 0.878279 1.13758
thorax 0.296278 0.458956 3.0834
lowerneck -9.62624 -6.51511 -5.42772
upperneck 20.2214 -9.08798 4.63187
head 8.32096 -4.29539 1.50312
rclavicle -1.75676e-014 -1.78906e-014
rhumerus -3.22655 25.3065 -87.3606
rradius 100.812
rwrist -11.8458
rhand -25.1198 45.2922
rfingers 7.12502
rthumb 1.39584 15.317
lclavicle -1.75676e-014 -1.78906e-014
lhumerus 1.75529 -1.53582 53.8157
lradius 107.81
lwrist 31.0623
lhand -6.54458 16.6707
lfingers 7.12502
lthumb 19.3088 45.7321
rfemur -3.86284 13.0589 12.3925
rtibia 10.5616
rfoot -4.73275 -13.4656
rtoes 0.331478
lfemur 6.18593 -1.77493 -17.8488
ltibia 4.13077
lfoot -9.89903 5.40897
ltoes -9.00554
593
root 10.4113 18.4515 -12.7024 0.547096 -3.89213 1.03469
lowerback -4.19179 0.633538 -2.10002
upperback -1.40968 0.916677 1.024
thorax 0.851966 0.461741 2.27347
lowerneck -9.58056 -6.58763 -5.23894
upperneck 20.0758 -9.2414 4.75193
head 8.26862 -4.34477 1.49815
rclavicle 1.36664e-014 3.18055e-015
rhumerus -1.35173 25.1629 -88.296
rradius 99.8081
rwrist -13.8763
rhand -25.1936 44.9104
rfingers 7.12502
rthumb 1.32461 14.9348
lclavicle 1.36664e-014 3.18055e-015
lhumerus 3.20909 -2.98206 53.2617
lradius 108.279
lwrist 30.5357
lhand -6.26209 16.9811
lfingers 7.12502
lthumb 19.5804 46.0151
rfemur -3.96117 13.371 13.1792
rtibia 10.6313
rfoot -4.59756 -13.9112
rtoes 0.717071
lfemur 6.10844 -1.93766 -17.0161
ltibia 3.92619
lfoot -9.57634 5.39079
ltoes -8.85117
594
root 10.4243 18.4426 -12.672 0.0230528 -3.40327 2.57322
lowerback -2.59812 0.638161 -4.55591
upperback -2.43317 0.933308 1.44389
thorax -1.14625 0.546501 4.05946
lowerneck -8.6129 -6.75466 -6.10746
upperneck 20.7469 -9.23575 3.93679
head 8.32353 -4.49786 1.39568
rclavicle -5.71506e-015 -7.95139e-016
rhumerus -2.43329 25.6817 -88.6813
rradius 99.2887
rwrist -15.5706
rhand -25.8448 43.2255
rfingers 7.12502
rthumb 0.695661 13.2469
lclavicle -5.71506e-015 -7.95139e-016
lhumerus 2.25698 -5.38389 54.5396
lradius 109.008
lwrist 29.5721
lhand -5.8538 17.6932
lfingers 7.12502
lthumb 19.9729 46.6868
rfemur -3.28551 12.4071 11.4836
rtibia 10.7544
rfoot -4.96395 -13.3301
rtoes 1.40462
lfemur 6.87788 -2.38175 -18.8174
ltibia 3.50843
lfoot -9.47911 5.41082
ltoes -9.0867
595
root 10.4314 18.4392 -12.6674 -0.0706493 -3.02041 3.07978
lowerback -4.47223 0.627566 -3.75773
upperback -1.31839 0.994895 0.517036
thorax 1.07735 0.49583 2.69254
lowerneck -8.31618 -6.76169 -5.60763
upperneck 19.4349 -9.4198 4.65319
head 7.85041 -4.49729 1.55564
rclavicle 1.74434e-014 3.57812e-015
rhumerus 0.29162 25.3232 -89.9004
rradius 98.2235
rwrist -16.8893
rhand -26.7659 42.3885
rfingers 7.12502
rthumb -0.19401 12.4089
lclavicle 1.74434e-014 3.57812e-015
lhumerus 4.86724 -6.63434 53.1279
lradius 109.309
lwrist 28.7542
lhand -6.23218 16.9548
lfingers 7.12502
lthumb 19.6091 45.9859
rfemur -3.18306 12.1514 10.8965
rtibia 10.9487
rfoot -5.1549 -13.3985
rtoes 1.91074
lfemur 7.518 -2.71495 -19.3863
ltibia 2.40492
lfoot -8.96431 5.49606
ltoes -9.03057
596
root 10.4365 18.4385 -12.6717 -0.156155 -2.72041 3.10498
lowerback -4.94772 0.70377 -3.38784
upperback -1.34567 1.09981 0.320355
thorax 1.31848 0.544097 2.29549
lowerneck -6.73643 -6.71379 -5.57938
upperneck 18.6641 -9.43638 4.89146
head 7.32562 -4.52234 1.69125
rclavicle 2.23633e-015 1.98785e-015
rhumerus 1.15721 25.2685 -90.9263
rradius 97.2053
rwrist -18.8757
rhand -26.6462 42.1027
rfingers 7.12502
rthumb -0.0783879 12.1229
lclavicle 2.23633e-015 1.98785e-015
lhumerus 5.64778 -8.74147 52.8437
lradius 109.817
lwrist 27.5589
lhand -7.08449 16.0011
lfingers 7.12502
lthumb 18.7896 45.1137
rfemur -3.16354 12.1702 10.8769
rtibia 11.2437
rfoot -5.39172 -13.7202
rtoes 2.57105
lfemur 8.81216 -2.98528 -19.3395
ltibia -9.54166e-015
lfoot -7.836 5.7445
ltoes -8.65689
597
root 10.4435 18.4386 -12.6755 -0.319372 -2.50263 2.977
lowerback -4.6911 0.643354 -3.1298
upperback -1.2227 0.996343 0.538862
thorax 1.30897 0.491587 2.36668
lowerneck -7.47694 -6.66599 -5.84229
upperneck 19.017 -9.26474 4.64211
head 7.56472 -4.46081 1.63962
rclavicle -1.59276e-014 -2.3059e-014
rhumerus 2.6774 25.955 -91.2984
rradius 96.2252
rwrist -20.9698
rhand -26.5235 40.2103
rfingers 7.12502
rthumb 0.0401263 10.2306
lclavicle -1.59276e-014 -2.3059e-014
lhumerus 6.36491 -9.85906 52.924
lradius 110.346
lwrist 25.5377
lhand -7.73445 15.4567
lfingers 7.12502
lthumb 18.1643 44.6285
rfemur -2.87792 12.1184 11.0452
rtibia 11.1625
rfoot -5.46713 -13.8832
rtoes 2.72956
lfemur 8.95802 -3.15367 -19.2263
ltibia -2.22639e-014
lfoot -7.84447 5.72636
ltoes -9.03047
